<?xml version="1.0" standalone="no"?>
<!DOCTYPE svg PUBLIC "-//W3C//DTD SVG 20010904//EN"
 "http://www.w3.org/TR/2001/REC-SVG-20010904/DTD/svg10.dtd">
<svg version="1.0" xmlns="http://www.w3.org/2000/svg"
 width="177.000000pt" height="177.000000pt" viewBox="0 0 177.000000 177.000000"
 preserveAspectRatio="xMidYMid meet">
<metadata>
Created by potrace 1.14, written by Peter Selinger 2001-2017
</metadata>
<g transform="translate(0.000000,177.000000) scale(0.100000,-0.100000)"
fill="#000000" stroke="none">
<path d="M663 1759 c-10 -4 -15 -8 -11 -8 3 -1 14 -4 24 -8 11 -4 15 -3 10 5
-4 7 1 10 14 7 11 -2 20 0 20 5 0 10 -29 9 -57 -1z"/>
<path d="M726 1755 c-3 -9 -10 -13 -16 -10 -6 3 -13 0 -16 -8 -5 -13 -9 -13
-31 -2 -28 15 -43 12 -43 -8 0 -7 4 -6 11 3 8 12 10 12 7 1 -2 -8 -11 -16 -19
-17 -7 -2 -27 -6 -42 -9 -21 -4 -27 -2 -21 6 4 8 3 9 -4 5 -7 -4 -12 -15 -13
-24 0 -10 -3 -12 -6 -5 -3 8 -14 2 -30 -17 -14 -17 -29 -27 -34 -24 -5 3 -7
10 -3 15 3 5 10 6 16 3 7 -4 8 -2 4 5 -4 7 -2 10 5 9 6 -2 14 4 16 12 4 13 3
13 -6 0 -6 -8 -11 -11 -11 -6 0 5 -6 3 -13 -3 -8 -6 -17 -8 -20 -4 -4 3 -7 -3
-7 -15 0 -12 -4 -22 -10 -22 -5 0 -10 5 -10 10 0 6 -5 10 -11 10 -5 0 -7 -4
-4 -10 3 -5 1 -10 -5 -10 -6 0 -9 -4 -5 -9 3 -5 1 -12 -5 -16 -6 -4 -7 -11 -4
-17 4 -5 -4 -5 -16 2 -21 11 -22 10 -18 -8 4 -15 1 -18 -13 -15 -11 3 -19 0
-19 -7 0 -19 -33 -40 -46 -29 -7 5 -11 3 -12 -6 -1 -8 -3 -22 -4 -30 -1 -11
-5 -12 -15 -3 -7 6 -16 8 -20 4 -3 -3 -2 -6 4 -6 6 0 14 -8 17 -17 4 -10 4
-14 0 -10 -4 4 -13 -2 -21 -12 -8 -12 -22 -18 -33 -16 -18 3 -19 1 -8 -18 10
-19 9 -20 -4 -10 -13 11 -15 8 -13 -17 1 -24 -1 -27 -15 -20 -14 7 -16 4 -16
-23 1 -25 -3 -33 -21 -35 -23 -3 -38 -28 -23 -37 6 -4 6 -14 0 -26 -6 -11 -16
-16 -22 -13 -6 4 -8 3 -5 -2 3 -5 -3 -20 -13 -34 -13 -17 -16 -30 -9 -46 6
-18 5 -22 -6 -17 -8 3 -12 10 -8 17 4 6 0 6 -9 -2 -10 -8 -15 -24 -12 -48 1
-19 0 -33 -4 -30 -4 2 -8 -18 -10 -46 -2 -38 0 -48 10 -42 10 6 10 4 0 -9 -10
-12 -13 -52 -11 -164 3 -154 4 -167 20 -158 5 4 5 14 -1 26 -7 13 -7 19 0 19
5 0 10 -7 10 -15 0 -8 6 -15 13 -15 8 0 7 -4 -3 -10 -8 -5 -11 -10 -6 -10 5 0
3 -6 -3 -14 -12 -15 -5 -46 11 -46 6 0 5 6 -2 15 -7 9 -8 15 -2 15 18 0 21
-29 4 -40 -14 -9 -13 -10 7 -4 16 4 21 3 17 -5 -12 -19 -16 -52 -5 -46 5 4 7
11 4 16 -4 5 -2 9 4 9 17 0 24 -22 10 -31 -12 -7 -11 -9 1 -9 13 0 13 -1 0
-10 -9 -6 -11 -10 -3 -10 7 0 10 -7 6 -18 -5 -14 -3 -13 10 3 16 20 16 20 12
-3 -3 -17 0 -22 9 -19 9 4 12 -2 8 -19 -3 -15 0 -24 8 -24 7 0 10 -7 6 -16 -5
-12 -1 -14 17 -9 18 6 20 5 9 -6 -15 -16 -16 -29 -1 -29 5 0 7 5 4 10 -3 6 -1
10 6 10 6 0 9 -8 6 -20 -3 -13 0 -20 9 -20 7 0 11 -6 8 -14 -3 -8 0 -17 7 -22
7 -4 10 -3 5 4 -4 6 1 10 13 9 15 -1 17 -5 10 -24 -6 -17 -5 -21 6 -16 11 3
15 -2 16 -18 0 -13 3 -18 6 -12 2 7 9 13 14 13 6 0 8 -4 5 -9 -4 -5 6 -19 21
-31 16 -12 22 -18 14 -14 -10 5 -12 3 -7 -5 5 -8 12 -9 19 -2 15 12 42 -7 42
-29 0 -8 7 -15 15 -15 8 0 21 -9 28 -20 10 -15 12 -16 8 -3 -3 10 0 20 6 24 6
4 8 3 4 -4 -3 -6 2 -15 11 -21 10 -6 12 -11 6 -11 -21 0 -15 -16 6 -16 11 0
18 3 16 6 -2 4 2 7 10 7 8 0 13 -5 12 -11 -1 -6 4 -10 11 -8 6 1 12 -5 12 -13
0 -8 5 -15 11 -15 5 0 7 4 4 10 -3 6 1 7 9 4 9 -3 13 -11 10 -16 -4 -6 3 -5
15 1 11 7 21 8 21 3 0 -5 10 -8 23 -8 28 3 39 -3 32 -15 -4 -5 -13 -5 -25 1
-13 7 -19 6 -23 -3 -3 -9 4 -12 26 -11 20 2 36 -4 47 -18 l17 -21 15 22 c16
23 16 23 23 2 6 -20 13 -21 176 -19 93 1 169 5 169 10 0 4 5 8 11 8 5 0 8 -4
5 -9 -3 -4 10 -1 28 8 19 9 33 18 32 21 -1 6 9 10 30 10 9 0 12 -5 8 -12 -4
-7 -3 -8 4 -4 7 4 12 14 12 23 0 13 2 14 17 2 11 -10 14 -10 9 -1 -4 6 -3 12
3 12 5 0 11 -3 14 -7 2 -5 3 -3 1 2 -1 6 5 20 13 30 12 15 14 16 10 3 -3 -9 0
-19 7 -21 9 -4 13 2 12 16 -1 14 4 21 13 19 8 -2 18 3 24 10 6 9 7 8 3 -5 -3
-9 -1 -17 4 -17 6 0 10 9 10 21 0 12 5 19 12 17 7 -3 21 6 31 19 15 19 22 21
34 12 11 -10 14 -10 11 2 -2 9 4 13 17 11 16 -2 17 -1 5 7 -14 10 -7 16 14 12
4 -1 14 4 22 10 17 14 19 43 2 33 -7 -4 -8 -3 -4 4 4 6 13 9 21 5 8 -3 15 0
15 7 0 6 5 8 10 5 6 -3 11 1 11 9 3 31 4 35 19 48 12 11 12 11 0 -6 -13 -17
-13 -19 0 -14 8 2 17 13 18 24 2 10 11 24 19 31 8 6 12 16 8 22 -4 7 0 8 11 4
13 -5 15 -3 9 7 -5 9 -4 11 3 6 7 -4 12 -2 12 4 0 6 5 8 13 4 7 -5 6 0 -3 11
-9 11 -10 16 -2 11 8 -5 12 0 12 18 0 31 9 56 22 56 5 0 6 -4 3 -10 -3 -5 -1
-10 5 -10 6 0 10 8 8 18 -2 11 2 16 12 14 8 -2 11 0 7 5 -5 4 -13 8 -18 8 -5
0 -8 5 -6 10 1 6 10 9 19 9 10 -1 16 2 13 5 -2 4 0 13 5 21 5 8 4 22 -2 34
-10 20 -10 20 7 6 17 -14 18 -13 11 5 -15 38 -12 60 7 57 16 -3 17 0 6 20 -11
20 -10 22 3 10 14 -11 16 7 16 180 0 106 -4 201 -9 210 -5 10 -5 18 1 21 6 3
5 4 -2 3 -7 -2 -12 -13 -10 -24 2 -12 -1 -22 -5 -22 -5 0 -9 8 -9 18 -1 9 -4
26 -8 37 -6 16 -6 17 3 5 7 -9 11 -11 11 -3 0 7 -8 17 -17 22 -17 10 -17 10
-1 11 9 0 20 4 23 10 4 6 -1 7 -11 3 -12 -4 -15 -3 -10 5 4 8 2 10 -7 6 -8 -3
-18 0 -23 7 -4 7 -3 10 4 5 6 -3 12 2 14 11 5 22 -21 65 -33 57 -9 -5 -13 10
-10 30 1 5 -6 3 -15 -5 -11 -8 -15 -9 -10 -2 4 7 3 21 -3 31 -5 10 -6 24 0 34
10 18 -8 38 -38 42 -10 2 -17 6 -15 10 3 8 -26 66 -34 66 -3 0 -3 -4 1 -9 3
-5 1 -12 -4 -15 -5 -4 -8 6 -6 21 3 25 2 26 -11 8 -8 -10 -14 -14 -14 -8 0 7
7 18 15 27 8 8 15 18 15 22 0 5 -5 3 -12 -4 -17 -17 -31 -15 -24 4 3 8 2 12
-3 9 -5 -3 -12 -1 -15 4 -3 4 -20 11 -37 15 -28 5 -29 7 -15 22 22 22 20 25
-9 14 -16 -6 -27 -6 -31 2 -5 7 -3 8 6 3 9 -5 11 -4 6 4 -5 7 -17 9 -29 5 -22
-6 -22 -6 -2 11 11 9 14 13 6 9 -10 -5 -13 -3 -9 8 4 8 0 15 -8 15 -7 0 -10
-5 -7 -11 4 -6 -1 -5 -10 3 -9 7 -17 10 -17 7 0 -4 -7 -1 -15 8 -8 8 -15 20
-15 27 0 7 -3 9 -6 6 -4 -3 -15 -2 -25 4 -14 7 -19 6 -19 -3 -1 -8 -6 -6 -14
5 -8 10 -23 19 -35 20 -23 1 -28 12 -8 21 6 3 1 3 -12 0 -16 -4 -21 -3 -17 5
4 6 2 11 -3 11 -6 0 -11 -4 -11 -9 0 -9 -88 -7 -97 3 -4 3 1 6 10 6 10 0 17 6
17 13 0 8 -7 14 -15 14 -8 0 -12 -4 -9 -9 3 -4 0 -8 -5 -8 -6 0 -11 4 -11 9 0
4 -71 9 -159 10 -138 2 -159 0 -165 -14z m564 -105 c0 -5 -5 -10 -11 -10 -5 0
-7 5 -4 10 3 6 8 10 11 10 2 0 4 -4 4 -10z m345 -279 c3 -5 2 -12 -3 -15 -5
-3 -9 1 -9 9 0 17 3 19 12 6z m-1510 -71 c-3 -5 -11 -10 -16 -10 -6 0 -7 5 -4
10 3 6 11 10 16 10 6 0 7 -4 4 -10z m1580 -79 c-2 -2 -11 3 -19 12 -8 8 -12
17 -9 21 3 3 12 -2 19 -12 7 -9 11 -19 9 -21z m-1665 -92 c0 -5 -4 -9 -8 -9
-5 0 -9 7 -9 15 0 8 4 12 9 9 4 -3 8 -9 8 -15z m10 -25 c0 -8 -19 -13 -24 -6
-3 5 1 9 9 9 8 0 15 -2 15 -3z m1663 -529 c-7 -21 -12 -19 -10 4 0 11 5 18 9
15 4 -3 5 -11 1 -19z m-233 -349 c0 -3 -4 -8 -10 -11 -5 -3 -10 -1 -10 4 0 6
5 11 10 11 6 0 10 -2 10 -4z m-794 -193 c-3 -19 -19 -21 -21 -2 -2 9 3 16 10
16 7 0 12 -6 11 -14z m424 13 c0 -2 -8 -10 -17 -17 -16 -13 -17 -12 -4 4 13
16 21 21 21 13z"/>
<path d="M1097 1747 c-3 -8 1 -14 8 -14 7 0 11 6 8 14 -3 7 -6 13 -8 13 -2 0
-5 -6 -8 -13z"/>
<path d="M595 1730 c-4 -6 -11 -7 -17 -4 -7 4 -8 2 -4 -4 7 -12 36 -5 36 9 0
12 -7 11 -15 -1z"/>
<path d="M287 1553 c3 -7 6 -13 8 -13 1 0 7 6 13 13 8 10 6 13 -7 13 -11 0
-17 -6 -14 -13z"/>
<path d="M1460 1560 c-9 -6 -10 -10 -3 -10 6 0 15 5 18 10 8 12 4 12 -15 0z"/>
<path d="M213 1468 c-1 -10 0 -18 2 -18 2 0 9 8 14 18 7 14 6 19 -3 19 -6 0
-13 -9 -13 -19z"/>
<path d="M115 1351 c-6 -11 13 -26 22 -17 4 3 1 6 -6 6 -7 0 -9 5 -6 10 3 6 4
10 1 10 -3 0 -7 -4 -11 -9z"/>
<path d="M1734 656 c1 -8 5 -18 8 -22 4 -3 5 1 4 10 -1 8 -5 18 -8 22 -4 3 -5
-1 -4 -10z"/>
<path d="M1620 370 c-9 -6 -10 -10 -3 -10 6 0 15 5 18 10 8 12 4 12 -15 0z"/>
<path d="M330 190 c0 -5 5 -10 11 -10 5 0 7 5 4 10 -3 6 -8 10 -11 10 -2 0 -4
-4 -4 -10z"/>
<path d="M1385 160 c-3 -5 -1 -10 4 -10 6 0 11 5 11 10 0 6 -2 10 -4 10 -3 0
-8 -4 -11 -10z"/>
<path d="M1286 97 c3 -10 9 -15 12 -12 3 3 0 11 -7 18 -10 9 -11 8 -5 -6z"/>
<path d="M560 50 c-9 -6 -10 -10 -3 -10 6 0 15 5 18 10 8 12 4 12 -15 0z"/>
</g>
</svg>
